<svg width="160" height="36" viewBox="0 0 160 36" fill="none" xmlns="http://www.w3.org/2000/svg">
<g clip-path="url(#clip0_57_956)">
<path d="M51.9536 8.46949C51.0574 8.46949 50.332 8.70776 49.7559 9.16263C49.2012 9.6175 48.9025 10.3106 48.9025 11.1987C48.9025 12.0868 49.2439 12.7583 49.9053 13.2348C50.5667 13.7114 51.3775 14.0363 52.3376 14.2529C53.2977 14.4695 54.2365 14.7078 55.1967 14.9893C56.1568 15.2709 56.9676 15.7908 57.629 16.5273C58.2904 17.2854 58.6318 18.3467 58.6318 19.733C58.6318 21.1193 58.0557 22.354 56.9036 23.437C55.7514 24.52 54.2152 25.0832 52.2949 25.0832C50.3747 25.0832 48.8171 24.6283 47.6223 23.7186C46.4275 22.8088 45.8301 21.5525 45.8301 19.928H49.0518C49.1158 20.7511 49.4146 21.4009 49.948 21.8774C50.4814 22.354 51.2495 22.5922 52.2736 22.5922C53.2977 22.5922 54.1085 22.3323 54.6846 21.7908C55.282 21.2493 55.5807 20.6211 55.5807 19.8847C55.5807 19.1482 55.41 18.585 55.0473 18.1735C54.6846 17.7619 54.2152 17.4587 53.6391 17.2421C53.063 17.0254 52.4443 16.8522 51.7402 16.7005C51.0574 16.5489 50.3533 16.354 49.6706 16.1374C48.9878 15.9208 48.3477 15.6392 47.7717 15.3143C47.1956 14.9677 46.7262 14.4695 46.3635 13.8197C46.0008 13.1699 45.8301 12.3684 45.8301 11.4153C45.8301 9.79079 46.4062 8.46949 47.5583 7.4731C48.7105 6.47671 50.204 5.97852 52.0602 5.97852C53.9165 5.97852 55.3673 6.41173 56.4768 7.25649C57.5863 8.12292 58.1837 9.35758 58.3117 10.9821H54.9833C54.9193 10.2673 54.6206 9.66083 54.0872 9.18429C53.5538 8.70776 52.8497 8.44783 51.9536 8.44783V8.46949Z" fill="#6890DA"/>
<path d="M69.2785 12.5849H65.7367V20.7726C65.7367 21.3358 65.8647 21.7257 66.1208 21.964C66.3768 22.2022 66.8035 22.3322 67.4223 22.3322H69.2785V24.8882H66.8889C64.0938 24.8882 62.6856 23.5235 62.6856 20.7726V12.5849H60.9574V10.0939H62.6856V6.41162H65.7367V10.0939H69.2785V12.5849V12.5849Z" fill="#6890DA"/>
<path d="M73.0337 22.9604C71.7109 21.5308 71.0494 19.668 71.0494 17.4369C71.0494 15.2059 71.7109 13.3647 73.0124 11.9568C74.3352 10.5489 75.9568 9.85571 77.9197 9.85571C79.0718 9.85571 80.0746 10.1156 80.9494 10.6572C81.8242 11.177 82.507 11.8702 82.9764 12.7366V10.1156H86.0274V24.9099H82.9764V22.1373C82.4856 23.047 81.8029 23.7835 80.9494 24.325C80.096 24.8665 79.0718 25.1481 77.941 25.1481C75.9994 25.1481 74.3779 24.4333 73.055 22.9821L73.0337 22.9604ZM81.6749 21.0976C82.5496 20.1878 82.9764 18.9748 82.9764 17.4586C82.9764 15.9424 82.5496 14.7294 81.6749 13.8413C80.8001 12.9532 79.7759 12.4983 78.5598 12.4983C77.3436 12.4983 76.3195 12.9315 75.4447 13.8196C74.5699 14.7077 74.1432 15.899 74.1432 17.4153C74.1432 18.9315 74.5699 20.1662 75.4447 21.0759C76.3195 22.0073 77.3436 22.4622 78.5598 22.4622C79.7759 22.4622 80.8001 22.0073 81.6749 21.0976Z" fill="#6890DA"/>
<path d="M97.0583 12.5849H93.5165V20.7726C93.5165 21.3358 93.6445 21.7257 93.9005 21.964C94.1566 22.2022 94.5833 22.3322 95.202 22.3322H97.0583V24.8882H94.6686C91.8736 24.8882 90.4654 23.5235 90.4654 20.7726V12.5849H88.7372V10.0939H90.4654V6.41162H93.5165V10.0939H97.0583V12.5849V12.5849Z" fill="#6890DA"/>
<path d="M110.009 10.094H113.018V24.8882H110.009V22.5489C109.049 24.2601 107.513 25.1048 105.358 25.1048C103.715 25.1048 102.371 24.5633 101.304 23.4586C100.237 22.3539 99.704 20.816 99.704 18.8232V10.094H102.691V18.3684C102.691 19.6897 103.011 20.7077 103.673 21.4225C104.334 22.1373 105.209 22.4839 106.34 22.4839C107.47 22.4839 108.366 22.1373 109.028 21.4225C109.689 20.7077 110.009 19.6897 110.009 18.3684V10.094Z" fill="#6890DA"/>
<path d="M116.346 14.3395C116.346 13.0831 116.858 12.0218 117.904 11.1554C118.949 10.2889 120.315 9.85571 122 9.85571C123.686 9.85571 125.03 10.2889 126.033 11.1337C127.036 11.9785 127.569 13.1481 127.633 14.6211H124.539C124.497 13.8846 124.241 13.3214 123.792 12.9099C123.344 12.4983 122.704 12.2817 121.894 12.2817C121.083 12.2817 120.443 12.455 119.995 12.8232C119.547 13.1915 119.312 13.668 119.312 14.2745C119.312 14.881 119.611 15.3359 120.187 15.6824C120.763 16.029 121.488 16.2673 122.32 16.4405C123.152 16.6138 124.006 16.8088 124.838 17.0254C125.67 17.2637 126.396 17.6752 126.972 18.3034C127.548 18.9315 127.846 19.7546 127.846 20.7943C127.846 22.0723 127.313 23.1337 126.246 23.9351C125.179 24.7366 123.814 25.1481 122.128 25.1481C120.443 25.1481 119.099 24.7366 118.053 23.9135C117.008 23.0904 116.432 21.9207 116.325 20.4044H119.44C119.504 21.1409 119.76 21.7041 120.229 22.1156C120.699 22.5272 121.36 22.7438 122.171 22.7438C122.982 22.7438 123.643 22.5705 124.134 22.2023C124.625 21.8341 124.859 21.3575 124.859 20.7294C124.859 20.1012 124.561 19.6463 123.985 19.2998C123.408 18.9532 122.683 18.7149 121.851 18.5416C121.019 18.3683 120.165 18.1734 119.333 17.9568C118.501 17.7402 117.776 17.3286 117.2 16.7438C116.624 16.159 116.325 15.3575 116.325 14.3828L116.346 14.3395Z" fill="#6890DA"/>
<path d="M134.567 6.17334C134.567 6.73651 134.375 7.19139 134.012 7.55962C133.65 7.92785 133.18 8.12279 132.647 8.12279C132.114 8.12279 131.665 7.92785 131.281 7.55962C130.919 7.19139 130.727 6.71485 130.727 6.17334C130.727 5.63182 130.919 5.15528 131.281 4.78705C131.644 4.41882 132.114 4.22388 132.647 4.22388C133.18 4.22388 133.628 4.41882 134.012 4.78705C134.397 5.15528 134.567 5.63182 134.567 6.17334ZM131.132 24.8881V10.0939H134.14V24.8881H131.132Z" fill="#6890DA"/>
<path d="M144.211 10.094V12.5849H141.523V24.8882H138.472V12.5849H136.744V10.094H138.472V9.05424C138.472 7.34305 138.92 6.10839 139.816 5.32861C140.712 4.54883 142.099 4.15894 143.998 4.15894V6.71489C143.08 6.71489 142.44 6.88818 142.078 7.23475C141.715 7.58132 141.523 8.18782 141.523 9.05424V10.094H144.211V10.094Z" fill="#6890DA"/>
<path d="M150.911 24.65L145.171 10.094H148.521L152.618 21.3792L156.885 10.094H160L151.06 31.8413H147.945L150.911 24.65V24.65Z" fill="#6890DA"/>
<path d="M17.0773 0.0120348C7.29053 0.37218 -0.348892 8.71645 0.011823 18.652C0.372538 28.5877 8.59664 36.3482 18.3834 35.988C28.1702 35.6279 35.8096 27.2836 35.4489 17.348C35.0882 7.41239 26.8641 -0.348111 17.0773 0.0120348ZM27.8392 18.2783L16.6523 27.7068C15.9478 28.2963 14.9196 28.2041 14.3385 27.4885C13.7574 26.7729 13.8476 25.7292 14.5521 25.1397L20.9331 19.7679C21.6581 19.156 21.7452 18.0257 21.0788 17.3132C20.523 16.7051 19.6038 16.6739 18.9364 17.1103C19.0027 17.1729 19.0888 17.1914 19.1559 17.2756C19.7773 17.9247 19.7084 18.9676 19.0244 19.5347L17.8847 20.487L16.8445 21.2405C13.9626 23.0156 10.3711 22.8876 7.63434 21.0159C6.35995 20.0224 6.33265 18.0943 7.55528 17.0739L17.9761 8.3022C18.6182 7.75837 19.5824 7.85294 20.1185 8.50514C20.6546 9.15734 20.562 10.1361 19.9199 10.68L13.9742 15.689C13.2902 16.256 13.2221 17.3206 13.8443 17.9913C14.3109 18.4943 15.0398 18.5759 15.6487 18.2934C15.561 18.2316 15.4528 18.1922 15.3636 18.0871C14.6972 17.3747 14.7851 16.266 15.5101 15.6541L16.7328 14.6337L17.8567 13.8338C20.9479 11.9426 24.8173 12.082 27.7507 14.0766C29.1128 15.1319 29.1456 17.2115 27.8408 18.3216L27.8392 18.2783Z" fill="url(#paint0_linear_57_956)"/>
</g>
<defs>
<linearGradient id="paint0_linear_57_956" x1="0.011823" y1="18.652" x2="35.4495" y2="17.3655" gradientUnits="userSpaceOnUse">
<stop stop-color="#78A6FC"/>
<stop offset="1" stop-color="#67D0B8"/>
</linearGradient>
<clipPath id="clip0_57_956">
<rect width="160" height="36" fill="white"/>
</clipPath>
</defs>
</svg>
