<svg width="30" height="30" viewBox="0 0 30 30" fill="none" xmlns="http://www.w3.org/2000/svg">
<path d="M29.8314 14.5726C29.8041 13.6538 29.04 12.9336 28.1212 12.9608L16.6118 13.2899L16.2706 1.76911C16.2434 0.850271 15.4793 0.130114 14.5604 0.157328C13.6416 0.184541 12.9215 0.948658 12.9487 1.86749L13.2899 13.3883L1.7691 13.7295C0.850262 13.7567 0.130106 14.5208 0.157319 15.4397C0.184533 16.3585 0.94865 17.0787 1.86749 17.0514L13.3883 16.7102L13.7295 28.231C13.7567 29.1499 14.5208 29.87 15.4397 29.8428C16.3585 29.8156 17.0786 29.0515 17.0514 28.1326L16.7102 16.6118L28.231 16.2706C29.1263 16.2441 29.8579 15.4679 29.8314 14.5726Z" fill="#686868"/>
</svg>
